# AST/ASF file generated using VICON BodyLanguage
# -----------------------------------------------
:version 1.10
:name VICON
:units
  mass 1.0
  length 0.45
  angle deg
:documentation
   .ast/.asf automatically generated from VICON data using
   VICON BodyBuilder and BodyLanguage model FoxedUp or BRILLIANT.MOD
:root
   order TX TY TZ RX RY RZ
   axis XYZ
   position 0 0 0  
   orientation 0 0 0 
:bonedata
  begin
     id 1 
     name lhipjoint
     direction 0.653368 -0.678499 0.335782 
     length 2.51848 
     axis 0 0 0  XYZ
  end
  begin
     id 2 
     name lfemur
     direction 0.34202 -0.939693 0  
     length 6.57749  
     axis 0 0 20  XYZ
    dof rx ry rz
    limits (-160.0 20.0)
           (-70.0 70.0)
           (-60.0 70.0)
  end
  begin
     id 3 
     name ltibia
     direction 0.34202 -0.939693 0   
     length 7.94618   
     axis 0 0 20   XYZ
    dof rx
    limits (-10.0 170.0)
  end
  begin
     id 4 
     name lfoot
     direction 0.0811271 -0.222895 0.971461   
     length 2.31339   
     axis -90 7.62852e-016 20   XYZ
    dof rx rz
    limits (-45.0 90.0)
           (-70.0 20.0)
  end
  begin
     id 5 
     name ltoes
     direction 1.53568e-011 -4.21885e-011 1   
     length 1.15935   
     axis -90 7.62852e-016 20   XYZ
    dof rx
    limits (-90.0 20.0)
  end
  begin
     id 6 
     name rhipjoint
     direction -0.640058 -0.688614 0.340788   
     length 2.48149  
     axis 0 0 0  XYZ 
  end
  begin
     id 7 
     name rfemur
     direction -0.34202 -0.939693 0   
     length 6.57875   
     axis 0 0 -20   XYZ
    dof rx ry rz
    limits (-160.0 20.0)
           (-70.0 70.0)
           (-70.0 60.0)
  end
  begin
     id 8 
     name rtibia
     direction -0.34202 -0.939693 0   
     length 7.977   
     axis 0 0 -20   XYZ
    dof rx
    limits (-10.0 170.0)
 end
 begin
     id 9 
     name rfoot
     direction -0.0979793 -0.269196 0.958089   
     length 2.19857  
     axis -90 -7.62852e-016 -20   XYZ
    dof rx rz
    limits (-45.0 90.0)
           (-20.0 70.0)
  end
  begin
     id 10 
     name rtoes
     direction -1.53556e-011 -4.21868e-011 1   
     length 1.09838   
     axis -90 -7.62852e-016 -20   XYZ
    dof rx
    limits (-90.0 20.0)
  end
  begin
     id 11 
     name lowerback
     direction 0.0149039 0.998517 -0.0523597   
     length 2.10809   
     axis 0 0 0   XYZ
    dof rx ry rz
    limits (-20.0 45.0)
           (-30.0 30.0)
           (-30.0 30.0)
  end
  begin
     id 12 
     name upperback
     direction -0.00882659 0.999418 -0.0329624   
     length 2.1102   
     axis 0 0 0   XYZ
    dof rx ry rz
    limits (-20.0 45.0)
           (-30.0 30.0)
           (-30.0 30.0)
  end
  begin
     id 13 
     name thorax
     direction -0.0165585 0.999826 -0.0085833   
     length 2.11039   
     axis 0 0 0   XYZ
    dof rx ry rz
    limits (-20.0 45.0)
           (-30.0 30.0)
           (-30.0 30.0)
  end
  begin
     id 14 
     name lowerneck
     direction -0.0130877 0.999911 0.00260353   
     length 1.73253   
     axis 0 0 0   XYZ
    dof rx ry rz
    limits (-20.0 45.0)
           (-30.0 30.0)
           (-30.0 30.0)
  end
  begin
     id 15 
     name upperneck
     direction -0.0348454 0.928205 -0.370435   
     length 1.66692   
     axis 0 0 0   XYZ
    dof rx ry rz
    limits (-20.0 45.0)
           (-30.0 30.0)
           (-30.0 30.0)
  end
  begin
     id 16
     name head
     direction -0.00807754 0.992494 -0.122026  
     length 1.72765  
     axis 0 0 0   XYZ
    dof rx ry rz
    limits (-20.0 45.0)
           (-30.0 30.0)
           (-30.0 30.0)
  end
  begin
     id 17 
     name lclavicle
     direction 0.987582 0.144023 0.0627671  
     length 3.49235  
     axis 0 0 0   XYZ
    dof ry rz
    limits (-20.0 10.0)
           (0.0 20.0)
  end
  begin
     id 18 
     name lhumerus
     direction 1 -4.48958e-011 -1.45183e-018   
     length 5.41917   
     axis 180 -30 -90   XYZ
    dof rx ry rz
    limits (-60.0 90.0)
           (-90.0 90.0)
           (-90.0 90.0)
  end
  begin
     id 19
     name lradius
     direction 1 -4.48999e-011 5.75106e-027   
     length 2.44373   
     axis 180 -30 -90   XYZ
    dof rx
    limits (-10.0 170.0)
  end
  begin
     id 20
     name lwrist
     direction 1 -4.48987e-011 1.53461e-026   
     length 1.22186   
     axis -1.09697e-014 90 90   XYZ
    dof ry
    limits (-180.0 0.0)
 end
  begin
     id 21 
     name lhand
     direction 1 -4.48881e-011 3.06923e-026   
     length 0.727502   
     axis -1.95843e-014 90 90   XYZ
    dof rx rz
    limits (-90.0 90.0)
           (-45.0 45.0)
  end
  begin
     id 22 
     name lfingers
     direction 1 -4.48907e-011 6.13845e-026   
     length 0.586531   
     axis -3.91686e-014 90 90   XYZ
    dof rx
    limits (0.0 90.0)
  end
  begin
     id 23
     name lthumb
     direction 0.707107 -6.3487e-011 0.707107   
     length 0.842145   
     axis -90 45 2.85299e-015   XYZ
    dof rx rz
    limits (-45.0 45.0)
           (-45.0 45.0)
  end
  begin
     id 24 
     name rclavicle
     direction -0.980998 0.169556 0.0943023   
     length 3.29272  
     axis 0 0 0   XYZ 
    dof ry rz
    limits (-10.0 20.0)
           (-20.0 0.0)
  end
  begin
     id 25 
     name rhumerus
     direction -1 -1.83355e-005 2.45537e-005  
     length 5.58976   
     axis 180 30 90   XYZ
    dof rx ry rz
    limits (-90.0 60.0)
           (-90.0 90.0)
           (-90.0 90.0)
  end
  begin
     id 26 
     name rradius
     direction -1 -4.48967e-011 5.97228e-027   
     length 2.4806   
     axis 180 30 90   XYZ
    dof rx
    limits (-10.0 170.0)
  end
  begin
     id 27 
     name rwrist
     direction -1 -4.48963e-011 1.53461e-026   
     length 1.2403   
     axis -1.09697e-014 -90 -90   XYZ
    dof ry
    limits (-180.0 0.0)
  end
  begin
     id 28
     name rhand
     direction -1 -4.48881e-011 3.06923e-026   
     length 0.816009   
     axis -1.95843e-014 -90 -90   XYZ
    dof rx rz
    limits (-90.0 90.0)
           (-45.0 45.0)
  end
  begin
     id 29
     name rfingers
     direction -1 -4.49018e-011 6.13845e-026   
     length 0.657887   
     axis -3.91686e-014 -90 -90   XYZ
    dof rx
    limits (0.0 90.0)
  end
  begin
     id 30
     name rthumb
     direction -0.707107 -6.34872e-011 0.707107   
     length 0.944599   
     axis -90 -45 -2.85299e-015   XYZ
    dof rx rz
    limits (-45.0 45.0)
           (-45.0 45.0)
  end
:hierarchy
  begin
    root lhipjoint rhipjoint lowerback
    lhipjoint lfemur
    lfemur ltibia
    ltibia lfoot
    lfoot ltoes
    rhipjoint rfemur
    rfemur rtibia
    rtibia rfoot
    rfoot rtoes
    lowerback upperback
    upperback thorax
    thorax lowerneck lclavicle rclavicle
    lowerneck upperneck
    upperneck head
    lclavicle lhumerus
    lhumerus lradius
    lradius lwrist
    lwrist lhand lthumb
    lhand lfingers
    rclavicle rhumerus
    rhumerus rradius
    rradius rwrist
    rwrist rhand rthumb
    rhand rfingers
  end

#!OML:ASF F:\VICON\USERDATA\INSTALL\rory3\rory3.ASF
:FULLY-SPECIFIED
:DEGREES
108
root -0.257639 16.3105 -15.1998 -151.82 5.53875 178.476
lowerback -21.7094 -0.00190263 -2.80317
upperback -9.05279 2.47616 -1.52394
thorax 2.24641 2.0673 0.566435
lowerneck -7.98592 2.44903 -1.35011
upperneck 37.3616 -2.651 3.658
head 14.1643 -2.65046 0.914814
rclavicle -1.65698e-014 -9.34288e-015
rhumerus -36.6368 -32.2568 -43.8778
rradius 9.56651
rwrist 44.6053
rhand 23.5395 9.83195
rfingers 7.12502
rthumb 47.817 -12.4658
lclavicle -1.65698e-014 -9.34288e-015
lhumerus -44.5001 -10.6296 67.9861
lradius 20.9301
lwrist -14.1642
lhand 27.267 20.1193
lfingers 7.12502
lthumb 51.2339 40.6692
rfemur -28.3415 -11.4744 28.6437
rtibia 55.3581
rfoot 26.5442 -25.2065
rtoes 13.2776
lfemur -46.4819 3.79959 -37.1911
ltibia 40.2237
lfoot -38.907 25.0672
ltoes 10.0743
109
root -0.257389 16.3125 -15.2103 -151.834 5.69215 178.217
lowerback -21.6417 -0.0590338 -3.1364
upperback -8.93659 2.43947 -1.58308
thorax 2.32988 2.03953 0.684801
lowerneck -8.48307 2.44081 -1.20357
upperneck 37.5072 -2.58136 3.44197
head 14.339 -2.60421 0.809208
rclavicle 1.34723e-014 1.11319e-014
rhumerus -37.4079 -36.9484 -39.9403
rradius 9.12555
rwrist 50.0072
rhand 23.6182 9.56797
rfingers 7.12502
rthumb 47.8896 -12.6962
lclavicle 1.34723e-014 1.11319e-014
lhumerus -43.7896 -10.4739 66.7389
lradius 20.6091
lwrist -14.4948
lhand 27.0511 20.4892
lfingers 7.12502
lthumb 51.0373 41.1498
rfemur -28.2799 -11.5599 28.3763
rtibia 55.3468
rfoot 26.5517 -24.9633
rtoes 12.1736
lfemur -46.2867 3.66596 -37.4319
ltibia 40.0041
lfoot -39.0587 24.9107
ltoes 10.8363
110
root -0.24103 16.3146 -15.225 -151.673 5.91741 178.046
lowerback -21.5282 -0.20519 -3.56082
upperback -9.41698 2.43455 -1.582
thorax 1.73887 2.11596 0.903733
lowerneck -7.62175 2.59666 -1.10751
upperneck 37.7293 -2.6159 3.44043
head 14.2505 -2.69541 0.775116
rclavicle -1.73937e-016 2.38542e-015
rhumerus -39.4731 -40.7942 -35.1302
rradius 8.71971
rwrist 55.2134
rhand 23.5512 9.75573
rfingers 7.12502
rthumb 47.8278 -12.537
lclavicle -1.73937e-016 2.38542e-015
lhumerus -44.2592 -10.9811 65.6781
lradius 20.4398
lwrist -14.8812
lhand 27.151 20.2997
lfingers 7.12502
lthumb 51.1283 40.9092
rfemur -28.4303 -11.1818 28.2565
rtibia 55.3192
rfoot 26.1381 -25.4931
rtoes 12.4698
lfemur -46.3651 3.9375 -37.7553
ltibia 39.8046
lfoot -38.6692 25.0069
ltoes 9.82248
111
root -0.24518 16.3184 -15.2075 -151.558 5.92806 178.142
lowerback -21.2924 -0.160725 -3.3952
upperback -9.39832 2.42704 -1.59415
thorax 1.64771 2.09945 0.78728
lowerneck -7.90221 2.54855 -1.14671
upperneck 37.694 -2.62397 3.44896
head 14.2977 -2.67978 0.786684
rclavicle 5.22058e-014 -2.00773e-014
rhumerus -40.8957 -45.564 -30.6875
rradius 8.19835
rwrist 60.4074
rhand 23.1052 9.68884
rfingers 7.12502
rthumb 47.416 -12.7919
lclavicle 5.22058e-014 -2.00773e-014
lhumerus -43.7405 -11.2866 64.5664
lradius 20.389
lwrist -14.8279
lhand 27.3053 20.135
lfingers 7.12502
lthumb 51.2688 40.6651
rfemur -28.4631 -10.9318 28.4231
rtibia 55.0495
rfoot 25.7417 -26.0792
rtoes 13.0578
lfemur -46.6242 3.78424 -37.6134
ltibia 39.9162
lfoot -38.7722 25.1375
ltoes 10.0175
112
root -0.262811 16.317 -15.2357 -151.45 5.54819 178.34
lowerback -21.751 -0.100333 -2.74059
upperback -9.19895 2.37957 -1.61952
thorax 2.11829 2.03828 0.404089
lowerneck -7.60386 2.44127 -1.13101
upperneck 37.2002 -2.62767 3.38364
head 13.9967 -2.65645 0.769223
rclavicle -1.91022e-014 -8.54774e-015
rhumerus -43.0868 -50.3314 -25.6562
rradius 7.89096
rwrist 65.4154
rhand 23.0148 8.86117
rfingers 7.12502
rthumb 47.3326 -13.6571
lclavicle -1.91022e-014 -8.54774e-015
lhumerus -43.1888 -11.8726 63.6298
lradius 20.4834
lwrist -14.1913
lhand 27.3924 20.5575
lfingers 7.12502
lthumb 51.348 41.0426
rfemur -28.1292 -11.6078 28.6535
rtibia 54.6462
rfoot 25.7039 -25.6536
rtoes 12.7167
lfemur -46.6054 3.6498 -37.3879
ltibia 40.0838
lfoot -39.0328 24.7581
ltoes 10.8664
113
root -0.261824 16.3118 -15.2995 -150.934 5.22447 179.267
lowerback -23.1365 0.0952808 -1.61833
upperback -8.83113 2.4232 -1.43378
thorax 3.23408 2.01242 0.0387937
lowerneck -8.12306 2.48668 -0.871739
upperneck 37.2076 -2.47875 3.27119
head 14.1094 -2.52895 0.700964
rclavicle 1.82664e-014 2.50469e-014
rhumerus -45.7679 -55.3684 -20.2986
rradius 7.5694
rwrist 70.7156
rhand 22.644 8.15287
rfingers 7.12502
rthumb 46.9898 -14.5179
lclavicle 1.82664e-014 2.50469e-014
lhumerus -42.3944 -12.1552 62.3811
lradius 20.646
lwrist -13.8569
lhand 27.6155 20.8064
lfingers 7.12502
lthumb 51.5509 41.1751
rfemur -27.9499 -11.707 29.693
rtibia 54.0494
rfoot 25.8909 -25.0975
rtoes 11.3214
lfemur -47.0853 3.83832 -36.4364
ltibia 40.4018
lfoot -39.024 24.7573
ltoes 10.3692
114
root -0.245201 16.3055 -15.3352 -150.723 5.70734 179.083
lowerback -23.2505 -0.024875 -2.16667
upperback -9.17738 2.47622 -1.39507
thorax 2.89386 2.09738 0.398206
lowerneck -7.74382 2.70548 -0.626796
upperneck 37.4563 -2.31962 3.16856
head 14.1341 -2.49232 0.628369
rclavicle -1.09835e-014 -9.54166e-015
rhumerus -50.2455 -59.0481 -13.2891
rradius 7.53777
rwrist 76.1881
rhand 22.2522 8.18841
rfingers 7.12502
rthumb 46.6271 -14.6404
lclavicle -1.09835e-014 -9.54166e-015
lhumerus -42.7791 -13.0367 61.5452
lradius 20.8507
lwrist -13.4758
lhand 27.8564 21.3196
lfingers 7.12502
lthumb 51.7698 41.5609
rfemur -27.7353 -11.2391 29.3355
rtibia 53.7815
rfoot 24.3061 -26.5825
rtoes 15.8107
lfemur -47.2584 4.01934 -36.7554
ltibia 40.4482
lfoot -38.9277 25.1543
ltoes 9.22468
115
root -0.251463 16.3094 -15.3571 -150.758 5.69981 179.281
lowerback -23.295 0.0110154 -1.8389
upperback -9.16343 2.44415 -1.33392
thorax 2.93931 2.07265 0.271741
lowerneck -7.59768 -3.29372 0.011623
upperneck 37.7634 0.172713 0.465114
head 14.182 1.93057 0.664942
rclavicle -5.33535e-015 -3.18055e-015
rhumerus -55.8043 -63.0465 -5.31313
rradius 7.62278
rwrist 81.6657
rhand 21.6568 8.35023
rfingers 7.12502
rthumb 46.0753 -14.7129
lclavicle -5.33535e-015 -3.18055e-015
lhumerus -42.4549 -13.9378 60.6837
lradius 20.6626
lwrist -12.7591
lhand 27.9556 21.5752
lfingers 7.12502
lthumb 51.8598 41.7637
rfemur -27.4027 -11.3244 29.4226
rtibia 53.5285
rfoot 24.1314 -26.4877
rtoes 15.3655
lfemur -47.1328 4.08103 -36.535
ltibia 40.4913
lfoot -39.0357 25.1318
ltoes 9.22504
116
root -0.218594 16.3127 -15.3777 -150.787 6.70054 178.666
lowerback -23.4145 -0.0747853 -3.12466
upperback -9.18109 2.63413 -1.44895
thorax 2.93484 2.19499 0.928976
lowerneck -7.89161 -3.34132 0.10763
upperneck 38.1552 0.219592 0.301802
head 14.4345 1.96759 0.603909
rclavicle 2.01436e-014 2.38542e-015
rhumerus -63.6751 -66.7215 4.88253
rradius 7.66629
rwrist 87.2716
rhand 20.9163 8.07255
rfingers 7.12502
rthumb 45.3877 -15.2726
lclavicle 2.01436e-014 2.38542e-015
lhumerus -42.1232 -14.8222 59.6854
lradius 20.783
lwrist -11.9909
lhand 28.2349 21.6621
lfingers 7.12502
lthumb 52.1132 41.7002
rfemur -27.5216 -10.1735 28.5054
rtibia 53.6545
rfoot 24.1958 -26.7759
rtoes 14.0016
lfemur -47.0134 4.3591 -37.2865
ltibia 40.2027
lfoot -39.4816 24.8958
ltoes 9.93243
117
root -0.227948 16.3167 -15.3865 -151.018 6.39949 178.879
lowerback -23.0284 0.00416767 -2.67301
upperback -9.04038 2.55992 -1.39699
thorax 2.91319 2.12182 0.699504
lowerneck -8.32879 -3.30788 0.0868518
upperneck 38.3317 0.278979 0.25437
head 14.6202 1.97586 0.602069
rclavicle -1.01178e-015 -6.16232e-015
rhumerus -74.6413 -70.2812 18.1209
rradius 7.80183
rwrist 92.8998
rhand 20.6291 7.3349
rfingers 7.12502
rthumb 45.1207 -16.117
lclavicle -1.01178e-015 -6.16232e-015
lhumerus -41.5843 -15.8178 58.8135
lradius 21.1895
lwrist -10.6784
lhand 28.7134 22.6888
lfingers 7.12502
lthumb 52.5466 42.4641
rfemur -27.1706 -10.5584 28.7108
rtibia 53.7248
rfoot 24.5023 -26.1549
rtoes 12.2273
lfemur -46.5337 4.13898 -36.8858
ltibia 39.9809
lfoot -39.7826 24.661
ltoes 10.643
118
root -0.218349 16.3119 -15.3923 -151.134 6.96427 178.343
lowerback -22.6742 -0.0980252 -3.42066
upperback -9.26183 2.61125 -1.5421
thorax 2.47448 2.18762 0.958168
lowerneck -7.49105 -3.27801 -0.0736827
upperneck 38.076 0.351799 0.438452
head 14.3075 2.02994 0.708809
rclavicle -2.37501e-014 2.92213e-014
rhumerus -88.6718 -71.9586 34.1671
rradius 8.11622
rwrist 98.5774
rhand 19.9108 7.52952
rfingers 7.12502
rthumb 44.452 -16.1827
lclavicle -2.37501e-014 2.92213e-014
lhumerus -41.5366 -17.1018 57.9375
lradius 21.3893
lwrist -9.81741
lhand 28.8877 23.1168
lfingers 7.12502
lthumb 52.7042 42.7946
rfemur -27.1503 -10.1283 27.8658
rtibia 53.9414
rfoot 23.2546 -27.136
rtoes 14.9562
lfemur -46.3084 4.33098 -37.6123
ltibia 39.7203
lfoot -39.6593 24.8613
ltoes 10.6072
